<?xml version="1.0" encoding="utf-8" standalone="no"?>
<!DOCTYPE svg PUBLIC "-//W3C//DTD SVG 1.1//EN"
  "http://www.w3.org/Graphics/SVG/1.1/DTD/svg11.dtd">
<!-- Created with matplotlib (https://matplotlib.org/) -->
<svg height="432pt" version="1.1" viewBox="0 0 576 432" width="576pt" xmlns="http://www.w3.org/2000/svg" xmlns:xlink="http://www.w3.org/1999/xlink">
 <metadata>
  <rdf:RDF xmlns:cc="http://creativecommons.org/ns#" xmlns:dc="http://purl.org/dc/elements/1.1/" xmlns:rdf="http://www.w3.org/1999/02/22-rdf-syntax-ns#">
   <cc:Work>
    <dc:type rdf:resource="http://purl.org/dc/dcmitype/StillImage"/>
    <dc:date>2021-07-27T16:38:08.267924</dc:date>
    <dc:format>image/svg+xml</dc:format>
    <dc:creator>
     <cc:Agent>
      <dc:title>Matplotlib v3.3.4, https://matplotlib.org/</dc:title>
     </cc:Agent>
    </dc:creator>
   </cc:Work>
  </rdf:RDF>
 </metadata>
 <defs>
  <style type="text/css">*{stroke-linecap:butt;stroke-linejoin:round;}</style>
 </defs>
 <g id="figure_1">
  <g id="patch_1">
   <path d="M 0 432 
L 576 432 
L 576 0 
L 0 0 
z
" style="fill:none;"/>
  </g>
  <g id="axes_1">
   <g id="patch_2">
    <path d="M 72 378 
L 518.4 378 
L 518.4 51.84 
L 72 51.84 
z
" style="fill:#ffffff;"/>
   </g>
   <g id="patch_3">
    <path clip-path="url(#p0533b2365d)" d="M 99.783182 378 
L 107.599855 378 
L 107.599855 67.371429 
L 99.783182 67.371429 
z
" style="fill:#ee82ee;opacity:0.4;"/>
   </g>
   <g id="patch_4">
    <path clip-path="url(#p0533b2365d)" d="M 107.599855 378 
L 115.416527 378 
L 115.416527 238.609511 
L 107.599855 238.609511 
z
" style="fill:#ee82ee;opacity:0.4;"/>
   </g>
   <g id="patch_5">
    <path clip-path="url(#p0533b2365d)" d="M 115.416527 378 
L 123.2332 378 
L 123.2332 296.648038 
L 115.416527 296.648038 
z
" style="fill:#ee82ee;opacity:0.4;"/>
   </g>
   <g id="patch_6">
    <path clip-path="url(#p0533b2365d)" d="M 123.2332 378 
L 131.049873 378 
L 131.049873 333.119765 
L 123.2332 333.119765 
z
" style="fill:#ee82ee;opacity:0.4;"/>
   </g>
   <g id="patch_7">
    <path clip-path="url(#p0533b2365d)" d="M 131.049873 378 
L 138.866545 378 
L 138.866545 344.595419 
L 131.049873 344.595419 
z
" style="fill:#ee82ee;opacity:0.4;"/>
   </g>
   <g id="patch_8">
    <path clip-path="url(#p0533b2365d)" d="M 138.866545 378 
L 146.683218 378 
L 146.683218 343.125062 
L 138.866545 343.125062 
z
" style="fill:#ee82ee;opacity:0.4;"/>
   </g>
   <g id="patch_9">
    <path clip-path="url(#p0533b2365d)" d="M 146.683218 378 
L 154.499891 378 
L 154.499891 356.662651 
L 146.683218 356.662651 
z
" style="fill:#ee82ee;opacity:0.4;"/>
   </g>
   <g id="patch_10">
    <path clip-path="url(#p0533b2365d)" d="M 154.499891 378 
L 162.316564 378 
L 162.316564 363.870835 
L 154.499891 363.870835 
z
" style="fill:#ee82ee;opacity:0.4;"/>
   </g>
   <g id="patch_11">
    <path clip-path="url(#p0533b2365d)" d="M 162.316564 378 
L 170.133236 378 
L 170.133236 363.279258 
L 162.316564 363.279258 
z
" style="fill:#ee82ee;opacity:0.4;"/>
   </g>
   <g id="patch_12">
    <path clip-path="url(#p0533b2365d)" d="M 170.133236 378 
L 177.949909 378 
L 177.949909 362.561249 
L 170.133236 362.561249 
z
" style="fill:#ee82ee;opacity:0.4;"/>
   </g>
   <g id="patch_13">
    <path clip-path="url(#p0533b2365d)" d="M 177.949909 378 
L 185.766582 378 
L 185.766582 364.749615 
L 177.949909 364.749615 
z
" style="fill:#ee82ee;opacity:0.4;"/>
   </g>
   <g id="patch_14">
    <path clip-path="url(#p0533b2365d)" d="M 185.766582 378 
L 193.583255 378 
L 193.583255 362.400478 
L 185.766582 362.400478 
z
" style="fill:#ee82ee;opacity:0.4;"/>
   </g>
   <g id="patch_15">
    <path clip-path="url(#p0533b2365d)" d="M 193.583255 378 
L 201.399927 378 
L 201.399927 366.972321 
L 193.583255 366.972321 
z
" style="fill:#ee82ee;opacity:0.4;"/>
   </g>
   <g id="patch_16">
    <path clip-path="url(#p0533b2365d)" d="M 201.399927 378 
L 209.2166 378 
L 209.2166 369.017085 
L 201.399927 369.017085 
z
" style="fill:#ee82ee;opacity:0.4;"/>
   </g>
   <g id="patch_17">
    <path clip-path="url(#p0533b2365d)" d="M 209.2166 378 
L 217.033273 378 
L 217.033273 370.056637 
L 209.2166 370.056637 
z
" style="fill:#ee82ee;opacity:0.4;"/>
   </g>
   <g id="patch_18">
    <path clip-path="url(#p0533b2365d)" d="M 217.033273 378 
L 224.849945 378 
L 224.849945 375.794464 
L 217.033273 375.794464 
z
" style="fill:#ee82ee;opacity:0.4;"/>
   </g>
   <g id="patch_19">
    <path clip-path="url(#p0533b2365d)" d="M 224.849945 378 
L 232.666618 378 
L 232.666618 375.202887 
L 224.849945 375.202887 
z
" style="fill:#ee82ee;opacity:0.4;"/>
   </g>
   <g id="patch_20">
    <path clip-path="url(#p0533b2365d)" d="M 232.666618 378 
L 240.483291 378 
L 240.483291 373.73253 
L 232.666618 373.73253 
z
" style="fill:#ee82ee;opacity:0.4;"/>
   </g>
   <g id="patch_21">
    <path clip-path="url(#p0533b2365d)" d="M 240.483291 378 
L 248.299964 378 
L 248.299964 376.529643 
L 240.483291 376.529643 
z
" style="fill:#ee82ee;opacity:0.4;"/>
   </g>
   <g id="patch_22">
    <path clip-path="url(#p0533b2365d)" d="M 248.299964 378 
L 256.116636 378 
L 256.116636 375.059286 
L 248.299964 375.059286 
z
" style="fill:#ee82ee;opacity:0.4;"/>
   </g>
   <g id="patch_23">
    <path clip-path="url(#p0533b2365d)" d="M 256.116636 378 
L 263.933309 378 
L 263.933309 376.529643 
L 256.116636 376.529643 
z
" style="fill:#ee82ee;opacity:0.4;"/>
   </g>
   <g id="patch_24">
    <path clip-path="url(#p0533b2365d)" d="M 263.933309 378 
L 271.749982 378 
L 271.749982 375.794464 
L 263.933309 375.794464 
z
" style="fill:#ee82ee;opacity:0.4;"/>
   </g>
   <g id="patch_25">
    <path clip-path="url(#p0533b2365d)" d="M 271.749982 378 
L 279.566655 378 
L 279.566655 377.264821 
L 271.749982 377.264821 
z
" style="fill:#ee82ee;opacity:0.4;"/>
   </g>
   <g id="patch_26">
    <path clip-path="url(#p0533b2365d)" d="M 279.566655 378 
L 287.383327 378 
L 287.383327 376.529643 
L 279.566655 376.529643 
z
" style="fill:#ee82ee;opacity:0.4;"/>
   </g>
   <g id="patch_27">
    <path clip-path="url(#p0533b2365d)" d="M 287.383327 378 
L 295.2 378 
L 295.2 378 
L 287.383327 378 
z
" style="fill:#ee82ee;opacity:0.4;"/>
   </g>
   <g id="patch_28">
    <path clip-path="url(#p0533b2365d)" d="M 295.2 378 
L 303.016673 378 
L 303.016673 376.529643 
L 295.2 376.529643 
z
" style="fill:#ee82ee;opacity:0.4;"/>
   </g>
   <g id="patch_29">
    <path clip-path="url(#p0533b2365d)" d="M 303.016673 378 
L 310.833345 378 
L 310.833345 376.529643 
L 303.016673 376.529643 
z
" style="fill:#ee82ee;opacity:0.4;"/>
   </g>
   <g id="patch_30">
    <path clip-path="url(#p0533b2365d)" d="M 310.833345 378 
L 318.650018 378 
L 318.650018 378 
L 310.833345 378 
z
" style="fill:#ee82ee;opacity:0.4;"/>
   </g>
   <g id="patch_31">
    <path clip-path="url(#p0533b2365d)" d="M 318.650018 378 
L 326.466691 378 
L 326.466691 378 
L 318.650018 378 
z
" style="fill:#ee82ee;opacity:0.4;"/>
   </g>
   <g id="patch_32">
    <path clip-path="url(#p0533b2365d)" d="M 326.466691 378 
L 334.283364 378 
L 334.283364 377.264821 
L 326.466691 377.264821 
z
" style="fill:#ee82ee;opacity:0.4;"/>
   </g>
   <g id="patch_33">
    <path clip-path="url(#p0533b2365d)" d="M 334.283364 378 
L 342.100036 378 
L 342.100036 376.529643 
L 334.283364 376.529643 
z
" style="fill:#ee82ee;opacity:0.4;"/>
   </g>
   <g id="patch_34">
    <path clip-path="url(#p0533b2365d)" d="M 342.100036 378 
L 349.916709 378 
L 349.916709 377.264821 
L 342.100036 377.264821 
z
" style="fill:#ee82ee;opacity:0.4;"/>
   </g>
   <g id="patch_35">
    <path clip-path="url(#p0533b2365d)" d="M 349.916709 378 
L 357.733382 378 
L 357.733382 378 
L 349.916709 378 
z
" style="fill:#ee82ee;opacity:0.4;"/>
   </g>
   <g id="patch_36">
    <path clip-path="url(#p0533b2365d)" d="M 357.733382 378 
L 365.550055 378 
L 365.550055 378 
L 357.733382 378 
z
" style="fill:#ee82ee;opacity:0.4;"/>
   </g>
   <g id="patch_37">
    <path clip-path="url(#p0533b2365d)" d="M 365.550055 378 
L 373.366727 378 
L 373.366727 378 
L 365.550055 378 
z
" style="fill:#ee82ee;opacity:0.4;"/>
   </g>
   <g id="patch_38">
    <path clip-path="url(#p0533b2365d)" d="M 373.366727 378 
L 381.1834 378 
L 381.1834 378 
L 373.366727 378 
z
" style="fill:#ee82ee;opacity:0.4;"/>
   </g>
   <g id="patch_39">
    <path clip-path="url(#p0533b2365d)" d="M 381.1834 378 
L 389.000073 378 
L 389.000073 378 
L 381.1834 378 
z
" style="fill:#ee82ee;opacity:0.4;"/>
   </g>
   <g id="patch_40">
    <path clip-path="url(#p0533b2365d)" d="M 389.000073 378 
L 396.816745 378 
L 396.816745 378 
L 389.000073 378 
z
" style="fill:#ee82ee;opacity:0.4;"/>
   </g>
   <g id="patch_41">
    <path clip-path="url(#p0533b2365d)" d="M 396.816745 378 
L 404.633418 378 
L 404.633418 377.264821 
L 396.816745 377.264821 
z
" style="fill:#ee82ee;opacity:0.4;"/>
   </g>
   <g id="patch_42">
    <path clip-path="url(#p0533b2365d)" d="M 404.633418 378 
L 412.450091 378 
L 412.450091 378 
L 404.633418 378 
z
" style="fill:#ee82ee;opacity:0.4;"/>
   </g>
   <g id="patch_43">
    <path clip-path="url(#p0533b2365d)" d="M 412.450091 378 
L 420.266764 378 
L 420.266764 378 
L 412.450091 378 
z
" style="fill:#ee82ee;opacity:0.4;"/>
   </g>
   <g id="patch_44">
    <path clip-path="url(#p0533b2365d)" d="M 420.266764 378 
L 428.083436 378 
L 428.083436 378 
L 420.266764 378 
z
" style="fill:#ee82ee;opacity:0.4;"/>
   </g>
   <g id="patch_45">
    <path clip-path="url(#p0533b2365d)" d="M 428.083436 378 
L 435.900109 378 
L 435.900109 378 
L 428.083436 378 
z
" style="fill:#ee82ee;opacity:0.4;"/>
   </g>
   <g id="patch_46">
    <path clip-path="url(#p0533b2365d)" d="M 435.900109 378 
L 443.716782 378 
L 443.716782 378 
L 435.900109 378 
z
" style="fill:#ee82ee;opacity:0.4;"/>
   </g>
   <g id="patch_47">
    <path clip-path="url(#p0533b2365d)" d="M 443.716782 378 
L 451.533455 378 
L 451.533455 378 
L 443.716782 378 
z
" style="fill:#ee82ee;opacity:0.4;"/>
   </g>
   <g id="patch_48">
    <path clip-path="url(#p0533b2365d)" d="M 451.533455 378 
L 459.350127 378 
L 459.350127 378 
L 451.533455 378 
z
" style="fill:#ee82ee;opacity:0.4;"/>
   </g>
   <g id="patch_49">
    <path clip-path="url(#p0533b2365d)" d="M 459.350127 378 
L 467.1668 378 
L 467.1668 378 
L 459.350127 378 
z
" style="fill:#ee82ee;opacity:0.4;"/>
   </g>
   <g id="patch_50">
    <path clip-path="url(#p0533b2365d)" d="M 467.1668 378 
L 474.983473 378 
L 474.983473 378 
L 467.1668 378 
z
" style="fill:#ee82ee;opacity:0.4;"/>
   </g>
   <g id="patch_51">
    <path clip-path="url(#p0533b2365d)" d="M 474.983473 378 
L 482.800145 378 
L 482.800145 378 
L 474.983473 378 
z
" style="fill:#ee82ee;opacity:0.4;"/>
   </g>
   <g id="patch_52">
    <path clip-path="url(#p0533b2365d)" d="M 482.800145 378 
L 490.616818 378 
L 490.616818 377.264821 
L 482.800145 377.264821 
z
" style="fill:#ee82ee;opacity:0.4;"/>
   </g>
   <g id="matplotlib.axis_1">
    <g id="xtick_1">
     <g id="line2d_1">
      <defs>
       <path d="M 0 0 
L 0 3.5 
" id="m710d34a674" style="stroke:#000000;stroke-width:0.8;"/>
      </defs>
      <g>
       <use style="stroke:#000000;stroke-width:0.8;" x="99.680114" xlink:href="#m710d34a674" y="378"/>
      </g>
     </g>
     <g id="text_1">
      <!-- 0 -->
      <g transform="translate(96.498864 392.598437)scale(0.1 -0.1)">
       <defs>
        <path d="M 31.78125 66.40625 
Q 24.171875 66.40625 20.328125 58.90625 
Q 16.5 51.421875 16.5 36.375 
Q 16.5 21.390625 20.328125 13.890625 
Q 24.171875 6.390625 31.78125 6.390625 
Q 39.453125 6.390625 43.28125 13.890625 
Q 47.125 21.390625 47.125 36.375 
Q 47.125 51.421875 43.28125 58.90625 
Q 39.453125 66.40625 31.78125 66.40625 
z
M 31.78125 74.21875 
Q 44.046875 74.21875 50.515625 64.515625 
Q 56.984375 54.828125 56.984375 36.375 
Q 56.984375 17.96875 50.515625 8.265625 
Q 44.046875 -1.421875 31.78125 -1.421875 
Q 19.53125 -1.421875 13.0625 8.265625 
Q 6.59375 17.96875 6.59375 36.375 
Q 6.59375 54.828125 13.0625 64.515625 
Q 19.53125 74.21875 31.78125 74.21875 
z
" id="DejaVuSans-48"/>
       </defs>
       <use xlink:href="#DejaVuSans-48"/>
      </g>
     </g>
    </g>
    <g id="xtick_2">
     <g id="line2d_2">
      <g>
       <use style="stroke:#000000;stroke-width:0.8;" x="151.214085" xlink:href="#m710d34a674" y="378"/>
      </g>
     </g>
     <g id="text_2">
      <!-- 10000 -->
      <g transform="translate(135.307835 392.598437)scale(0.1 -0.1)">
       <defs>
        <path d="M 12.40625 8.296875 
L 28.515625 8.296875 
L 28.515625 63.921875 
L 10.984375 60.40625 
L 10.984375 69.390625 
L 28.421875 72.90625 
L 38.28125 72.90625 
L 38.28125 8.296875 
L 54.390625 8.296875 
L 54.390625 0 
L 12.40625 0 
z
" id="DejaVuSans-49"/>
       </defs>
       <use xlink:href="#DejaVuSans-49"/>
       <use x="63.623047" xlink:href="#DejaVuSans-48"/>
       <use x="127.246094" xlink:href="#DejaVuSans-48"/>
       <use x="190.869141" xlink:href="#DejaVuSans-48"/>
       <use x="254.492188" xlink:href="#DejaVuSans-48"/>
      </g>
     </g>
    </g>
    <g id="xtick_3">
     <g id="line2d_3">
      <g>
       <use style="stroke:#000000;stroke-width:0.8;" x="202.748056" xlink:href="#m710d34a674" y="378"/>
      </g>
     </g>
     <g id="text_3">
      <!-- 20000 -->
      <g transform="translate(186.841806 392.598437)scale(0.1 -0.1)">
       <defs>
        <path d="M 19.1875 8.296875 
L 53.609375 8.296875 
L 53.609375 0 
L 7.328125 0 
L 7.328125 8.296875 
Q 12.9375 14.109375 22.625 23.890625 
Q 32.328125 33.6875 34.8125 36.53125 
Q 39.546875 41.84375 41.421875 45.53125 
Q 43.3125 49.21875 43.3125 52.78125 
Q 43.3125 58.59375 39.234375 62.25 
Q 35.15625 65.921875 28.609375 65.921875 
Q 23.96875 65.921875 18.8125 64.3125 
Q 13.671875 62.703125 7.8125 59.421875 
L 7.8125 69.390625 
Q 13.765625 71.78125 18.9375 73 
Q 24.125 74.21875 28.421875 74.21875 
Q 39.75 74.21875 46.484375 68.546875 
Q 53.21875 62.890625 53.21875 53.421875 
Q 53.21875 48.921875 51.53125 44.890625 
Q 49.859375 40.875 45.40625 35.40625 
Q 44.1875 33.984375 37.640625 27.21875 
Q 31.109375 20.453125 19.1875 8.296875 
z
" id="DejaVuSans-50"/>
       </defs>
       <use xlink:href="#DejaVuSans-50"/>
       <use x="63.623047" xlink:href="#DejaVuSans-48"/>
       <use x="127.246094" xlink:href="#DejaVuSans-48"/>
       <use x="190.869141" xlink:href="#DejaVuSans-48"/>
       <use x="254.492188" xlink:href="#DejaVuSans-48"/>
      </g>
     </g>
    </g>
    <g id="xtick_4">
     <g id="line2d_4">
      <g>
       <use style="stroke:#000000;stroke-width:0.8;" x="254.282027" xlink:href="#m710d34a674" y="378"/>
      </g>
     </g>
     <g id="text_4">
      <!-- 30000 -->
      <g transform="translate(238.375777 392.598437)scale(0.1 -0.1)">
       <defs>
        <path d="M 40.578125 39.3125 
Q 47.65625 37.796875 51.625 33 
Q 55.609375 28.21875 55.609375 21.1875 
Q 55.609375 10.40625 48.1875 4.484375 
Q 40.765625 -1.421875 27.09375 -1.421875 
Q 22.515625 -1.421875 17.65625 -0.515625 
Q 12.796875 0.390625 7.625 2.203125 
L 7.625 11.71875 
Q 11.71875 9.328125 16.59375 8.109375 
Q 21.484375 6.890625 26.8125 6.890625 
Q 36.078125 6.890625 40.9375 10.546875 
Q 45.796875 14.203125 45.796875 21.1875 
Q 45.796875 27.640625 41.28125 31.265625 
Q 36.765625 34.90625 28.71875 34.90625 
L 20.21875 34.90625 
L 20.21875 43.015625 
L 29.109375 43.015625 
Q 36.375 43.015625 40.234375 45.921875 
Q 44.09375 48.828125 44.09375 54.296875 
Q 44.09375 59.90625 40.109375 62.90625 
Q 36.140625 65.921875 28.71875 65.921875 
Q 24.65625 65.921875 20.015625 65.03125 
Q 15.375 64.15625 9.8125 62.3125 
L 9.8125 71.09375 
Q 15.4375 72.65625 20.34375 73.4375 
Q 25.25 74.21875 29.59375 74.21875 
Q 40.828125 74.21875 47.359375 69.109375 
Q 53.90625 64.015625 53.90625 55.328125 
Q 53.90625 49.265625 50.4375 45.09375 
Q 46.96875 40.921875 40.578125 39.3125 
z
" id="DejaVuSans-51"/>
       </defs>
       <use xlink:href="#DejaVuSans-51"/>
       <use x="63.623047" xlink:href="#DejaVuSans-48"/>
       <use x="127.246094" xlink:href="#DejaVuSans-48"/>
       <use x="190.869141" xlink:href="#DejaVuSans-48"/>
       <use x="254.492188" xlink:href="#DejaVuSans-48"/>
      </g>
     </g>
    </g>
    <g id="xtick_5">
     <g id="line2d_5">
      <g>
       <use style="stroke:#000000;stroke-width:0.8;" x="305.815998" xlink:href="#m710d34a674" y="378"/>
      </g>
     </g>
     <g id="text_5">
      <!-- 40000 -->
      <g transform="translate(289.909748 392.598437)scale(0.1 -0.1)">
       <defs>
        <path d="M 37.796875 64.3125 
L 12.890625 25.390625 
L 37.796875 25.390625 
z
M 35.203125 72.90625 
L 47.609375 72.90625 
L 47.609375 25.390625 
L 58.015625 25.390625 
L 58.015625 17.1875 
L 47.609375 17.1875 
L 47.609375 0 
L 37.796875 0 
L 37.796875 17.1875 
L 4.890625 17.1875 
L 4.890625 26.703125 
z
" id="DejaVuSans-52"/>
       </defs>
       <use xlink:href="#DejaVuSans-52"/>
       <use x="63.623047" xlink:href="#DejaVuSans-48"/>
       <use x="127.246094" xlink:href="#DejaVuSans-48"/>
       <use x="190.869141" xlink:href="#DejaVuSans-48"/>
       <use x="254.492188" xlink:href="#DejaVuSans-48"/>
      </g>
     </g>
    </g>
    <g id="xtick_6">
     <g id="line2d_6">
      <g>
       <use style="stroke:#000000;stroke-width:0.8;" x="357.349969" xlink:href="#m710d34a674" y="378"/>
      </g>
     </g>
     <g id="text_6">
      <!-- 50000 -->
      <g transform="translate(341.443719 392.598437)scale(0.1 -0.1)">
       <defs>
        <path d="M 10.796875 72.90625 
L 49.515625 72.90625 
L 49.515625 64.59375 
L 19.828125 64.59375 
L 19.828125 46.734375 
Q 21.96875 47.46875 24.109375 47.828125 
Q 26.265625 48.1875 28.421875 48.1875 
Q 40.625 48.1875 47.75 41.5 
Q 54.890625 34.8125 54.890625 23.390625 
Q 54.890625 11.625 47.5625 5.09375 
Q 40.234375 -1.421875 26.90625 -1.421875 
Q 22.3125 -1.421875 17.546875 -0.640625 
Q 12.796875 0.140625 7.71875 1.703125 
L 7.71875 11.625 
Q 12.109375 9.234375 16.796875 8.0625 
Q 21.484375 6.890625 26.703125 6.890625 
Q 35.15625 6.890625 40.078125 11.328125 
Q 45.015625 15.765625 45.015625 23.390625 
Q 45.015625 31 40.078125 35.4375 
Q 35.15625 39.890625 26.703125 39.890625 
Q 22.75 39.890625 18.8125 39.015625 
Q 14.890625 38.140625 10.796875 36.28125 
z
" id="DejaVuSans-53"/>
       </defs>
       <use xlink:href="#DejaVuSans-53"/>
       <use x="63.623047" xlink:href="#DejaVuSans-48"/>
       <use x="127.246094" xlink:href="#DejaVuSans-48"/>
       <use x="190.869141" xlink:href="#DejaVuSans-48"/>
       <use x="254.492188" xlink:href="#DejaVuSans-48"/>
      </g>
     </g>
    </g>
    <g id="xtick_7">
     <g id="line2d_7">
      <g>
       <use style="stroke:#000000;stroke-width:0.8;" x="408.88394" xlink:href="#m710d34a674" y="378"/>
      </g>
     </g>
     <g id="text_7">
      <!-- 60000 -->
      <g transform="translate(392.97769 392.598437)scale(0.1 -0.1)">
       <defs>
        <path d="M 33.015625 40.375 
Q 26.375 40.375 22.484375 35.828125 
Q 18.609375 31.296875 18.609375 23.390625 
Q 18.609375 15.53125 22.484375 10.953125 
Q 26.375 6.390625 33.015625 6.390625 
Q 39.65625 6.390625 43.53125 10.953125 
Q 47.40625 15.53125 47.40625 23.390625 
Q 47.40625 31.296875 43.53125 35.828125 
Q 39.65625 40.375 33.015625 40.375 
z
M 52.59375 71.296875 
L 52.59375 62.3125 
Q 48.875 64.0625 45.09375 64.984375 
Q 41.3125 65.921875 37.59375 65.921875 
Q 27.828125 65.921875 22.671875 59.328125 
Q 17.53125 52.734375 16.796875 39.40625 
Q 19.671875 43.65625 24.015625 45.921875 
Q 28.375 48.1875 33.59375 48.1875 
Q 44.578125 48.1875 50.953125 41.515625 
Q 57.328125 34.859375 57.328125 23.390625 
Q 57.328125 12.15625 50.6875 5.359375 
Q 44.046875 -1.421875 33.015625 -1.421875 
Q 20.359375 -1.421875 13.671875 8.265625 
Q 6.984375 17.96875 6.984375 36.375 
Q 6.984375 53.65625 15.1875 63.9375 
Q 23.390625 74.21875 37.203125 74.21875 
Q 40.921875 74.21875 44.703125 73.484375 
Q 48.484375 72.75 52.59375 71.296875 
z
" id="DejaVuSans-54"/>
       </defs>
       <use xlink:href="#DejaVuSans-54"/>
       <use x="63.623047" xlink:href="#DejaVuSans-48"/>
       <use x="127.246094" xlink:href="#DejaVuSans-48"/>
       <use x="190.869141" xlink:href="#DejaVuSans-48"/>
       <use x="254.492188" xlink:href="#DejaVuSans-48"/>
      </g>
     </g>
    </g>
    <g id="xtick_8">
     <g id="line2d_8">
      <g>
       <use style="stroke:#000000;stroke-width:0.8;" x="460.417911" xlink:href="#m710d34a674" y="378"/>
      </g>
     </g>
     <g id="text_8">
      <!-- 70000 -->
      <g transform="translate(444.511661 392.598437)scale(0.1 -0.1)">
       <defs>
        <path d="M 8.203125 72.90625 
L 55.078125 72.90625 
L 55.078125 68.703125 
L 28.609375 0 
L 18.3125 0 
L 43.21875 64.59375 
L 8.203125 64.59375 
z
" id="DejaVuSans-55"/>
       </defs>
       <use xlink:href="#DejaVuSans-55"/>
       <use x="63.623047" xlink:href="#DejaVuSans-48"/>
       <use x="127.246094" xlink:href="#DejaVuSans-48"/>
       <use x="190.869141" xlink:href="#DejaVuSans-48"/>
       <use x="254.492188" xlink:href="#DejaVuSans-48"/>
      </g>
     </g>
    </g>
    <g id="xtick_9">
     <g id="line2d_9">
      <g>
       <use style="stroke:#000000;stroke-width:0.8;" x="511.951882" xlink:href="#m710d34a674" y="378"/>
      </g>
     </g>
     <g id="text_9">
      <!-- 80000 -->
      <g transform="translate(496.045632 392.598437)scale(0.1 -0.1)">
       <defs>
        <path d="M 31.78125 34.625 
Q 24.75 34.625 20.71875 30.859375 
Q 16.703125 27.09375 16.703125 20.515625 
Q 16.703125 13.921875 20.71875 10.15625 
Q 24.75 6.390625 31.78125 6.390625 
Q 38.8125 6.390625 42.859375 10.171875 
Q 46.921875 13.96875 46.921875 20.515625 
Q 46.921875 27.09375 42.890625 30.859375 
Q 38.875 34.625 31.78125 34.625 
z
M 21.921875 38.8125 
Q 15.578125 40.375 12.03125 44.71875 
Q 8.5 49.078125 8.5 55.328125 
Q 8.5 64.0625 14.71875 69.140625 
Q 20.953125 74.21875 31.78125 74.21875 
Q 42.671875 74.21875 48.875 69.140625 
Q 55.078125 64.0625 55.078125 55.328125 
Q 55.078125 49.078125 51.53125 44.71875 
Q 48 40.375 41.703125 38.8125 
Q 48.828125 37.15625 52.796875 32.3125 
Q 56.78125 27.484375 56.78125 20.515625 
Q 56.78125 9.90625 50.3125 4.234375 
Q 43.84375 -1.421875 31.78125 -1.421875 
Q 19.734375 -1.421875 13.25 4.234375 
Q 6.78125 9.90625 6.78125 20.515625 
Q 6.78125 27.484375 10.78125 32.3125 
Q 14.796875 37.15625 21.921875 38.8125 
z
M 18.3125 54.390625 
Q 18.3125 48.734375 21.84375 45.5625 
Q 25.390625 42.390625 31.78125 42.390625 
Q 38.140625 42.390625 41.71875 45.5625 
Q 45.3125 48.734375 45.3125 54.390625 
Q 45.3125 60.0625 41.71875 63.234375 
Q 38.140625 66.40625 31.78125 66.40625 
Q 25.390625 66.40625 21.84375 63.234375 
Q 18.3125 60.0625 18.3125 54.390625 
z
" id="DejaVuSans-56"/>
       </defs>
       <use xlink:href="#DejaVuSans-56"/>
       <use x="63.623047" xlink:href="#DejaVuSans-48"/>
       <use x="127.246094" xlink:href="#DejaVuSans-48"/>
       <use x="190.869141" xlink:href="#DejaVuSans-48"/>
       <use x="254.492188" xlink:href="#DejaVuSans-48"/>
      </g>
     </g>
    </g>
    <g id="text_10">
     <!-- CompetitionDistance -->
     <g transform="translate(242.739062 406.276563)scale(0.1 -0.1)">
      <defs>
       <path d="M 64.40625 67.28125 
L 64.40625 56.890625 
Q 59.421875 61.53125 53.78125 63.8125 
Q 48.140625 66.109375 41.796875 66.109375 
Q 29.296875 66.109375 22.65625 58.46875 
Q 16.015625 50.828125 16.015625 36.375 
Q 16.015625 21.96875 22.65625 14.328125 
Q 29.296875 6.6875 41.796875 6.6875 
Q 48.140625 6.6875 53.78125 8.984375 
Q 59.421875 11.28125 64.40625 15.921875 
L 64.40625 5.609375 
Q 59.234375 2.09375 53.4375 0.328125 
Q 47.65625 -1.421875 41.21875 -1.421875 
Q 24.65625 -1.421875 15.125 8.703125 
Q 5.609375 18.84375 5.609375 36.375 
Q 5.609375 53.953125 15.125 64.078125 
Q 24.65625 74.21875 41.21875 74.21875 
Q 47.75 74.21875 53.53125 72.484375 
Q 59.328125 70.75 64.40625 67.28125 
z
" id="DejaVuSans-67"/>
       <path d="M 30.609375 48.390625 
Q 23.390625 48.390625 19.1875 42.75 
Q 14.984375 37.109375 14.984375 27.296875 
Q 14.984375 17.484375 19.15625 11.84375 
Q 23.34375 6.203125 30.609375 6.203125 
Q 37.796875 6.203125 41.984375 11.859375 
Q 46.1875 17.53125 46.1875 27.296875 
Q 46.1875 37.015625 41.984375 42.703125 
Q 37.796875 48.390625 30.609375 48.390625 
z
M 30.609375 56 
Q 42.328125 56 49.015625 48.375 
Q 55.71875 40.765625 55.71875 27.296875 
Q 55.71875 13.875 49.015625 6.21875 
Q 42.328125 -1.421875 30.609375 -1.421875 
Q 18.84375 -1.421875 12.171875 6.21875 
Q 5.515625 13.875 5.515625 27.296875 
Q 5.515625 40.765625 12.171875 48.375 
Q 18.84375 56 30.609375 56 
z
" id="DejaVuSans-111"/>
       <path d="M 52 44.1875 
Q 55.375 50.25 60.0625 53.125 
Q 64.75 56 71.09375 56 
Q 79.640625 56 84.28125 50.015625 
Q 88.921875 44.046875 88.921875 33.015625 
L 88.921875 0 
L 79.890625 0 
L 79.890625 32.71875 
Q 79.890625 40.578125 77.09375 44.375 
Q 74.3125 48.1875 68.609375 48.1875 
Q 61.625 48.1875 57.5625 43.546875 
Q 53.515625 38.921875 53.515625 30.90625 
L 53.515625 0 
L 44.484375 0 
L 44.484375 32.71875 
Q 44.484375 40.625 41.703125 44.40625 
Q 38.921875 48.1875 33.109375 48.1875 
Q 26.21875 48.1875 22.15625 43.53125 
Q 18.109375 38.875 18.109375 30.90625 
L 18.109375 0 
L 9.078125 0 
L 9.078125 54.6875 
L 18.109375 54.6875 
L 18.109375 46.1875 
Q 21.1875 51.21875 25.484375 53.609375 
Q 29.78125 56 35.6875 56 
Q 41.65625 56 45.828125 52.96875 
Q 50 49.953125 52 44.1875 
z
" id="DejaVuSans-109"/>
       <path d="M 18.109375 8.203125 
L 18.109375 -20.796875 
L 9.078125 -20.796875 
L 9.078125 54.6875 
L 18.109375 54.6875 
L 18.109375 46.390625 
Q 20.953125 51.265625 25.265625 53.625 
Q 29.59375 56 35.59375 56 
Q 45.5625 56 51.78125 48.09375 
Q 58.015625 40.1875 58.015625 27.296875 
Q 58.015625 14.40625 51.78125 6.484375 
Q 45.5625 -1.421875 35.59375 -1.421875 
Q 29.59375 -1.421875 25.265625 0.953125 
Q 20.953125 3.328125 18.109375 8.203125 
z
M 48.6875 27.296875 
Q 48.6875 37.203125 44.609375 42.84375 
Q 40.53125 48.484375 33.40625 48.484375 
Q 26.265625 48.484375 22.1875 42.84375 
Q 18.109375 37.203125 18.109375 27.296875 
Q 18.109375 17.390625 22.1875 11.75 
Q 26.265625 6.109375 33.40625 6.109375 
Q 40.53125 6.109375 44.609375 11.75 
Q 48.6875 17.390625 48.6875 27.296875 
z
" id="DejaVuSans-112"/>
       <path d="M 56.203125 29.59375 
L 56.203125 25.203125 
L 14.890625 25.203125 
Q 15.484375 15.921875 20.484375 11.0625 
Q 25.484375 6.203125 34.421875 6.203125 
Q 39.59375 6.203125 44.453125 7.46875 
Q 49.3125 8.734375 54.109375 11.28125 
L 54.109375 2.78125 
Q 49.265625 0.734375 44.1875 -0.34375 
Q 39.109375 -1.421875 33.890625 -1.421875 
Q 20.796875 -1.421875 13.15625 6.1875 
Q 5.515625 13.8125 5.515625 26.8125 
Q 5.515625 40.234375 12.765625 48.109375 
Q 20.015625 56 32.328125 56 
Q 43.359375 56 49.78125 48.890625 
Q 56.203125 41.796875 56.203125 29.59375 
z
M 47.21875 32.234375 
Q 47.125 39.59375 43.09375 43.984375 
Q 39.0625 48.390625 32.421875 48.390625 
Q 24.90625 48.390625 20.390625 44.140625 
Q 15.875 39.890625 15.1875 32.171875 
z
" id="DejaVuSans-101"/>
       <path d="M 18.3125 70.21875 
L 18.3125 54.6875 
L 36.8125 54.6875 
L 36.8125 47.703125 
L 18.3125 47.703125 
L 18.3125 18.015625 
Q 18.3125 11.328125 20.140625 9.421875 
Q 21.96875 7.515625 27.59375 7.515625 
L 36.8125 7.515625 
L 36.8125 0 
L 27.59375 0 
Q 17.1875 0 13.234375 3.875 
Q 9.28125 7.765625 9.28125 18.015625 
L 9.28125 47.703125 
L 2.6875 47.703125 
L 2.6875 54.6875 
L 9.28125 54.6875 
L 9.28125 70.21875 
z
" id="DejaVuSans-116"/>
       <path d="M 9.421875 54.6875 
L 18.40625 54.6875 
L 18.40625 0 
L 9.421875 0 
z
M 9.421875 75.984375 
L 18.40625 75.984375 
L 18.40625 64.59375 
L 9.421875 64.59375 
z
" id="DejaVuSans-105"/>
       <path d="M 54.890625 33.015625 
L 54.890625 0 
L 45.90625 0 
L 45.90625 32.71875 
Q 45.90625 40.484375 42.875 44.328125 
Q 39.84375 48.1875 33.796875 48.1875 
Q 26.515625 48.1875 22.3125 43.546875 
Q 18.109375 38.921875 18.109375 30.90625 
L 18.109375 0 
L 9.078125 0 
L 9.078125 54.6875 
L 18.109375 54.6875 
L 18.109375 46.1875 
Q 21.34375 51.125 25.703125 53.5625 
Q 30.078125 56 35.796875 56 
Q 45.21875 56 50.046875 50.171875 
Q 54.890625 44.34375 54.890625 33.015625 
z
" id="DejaVuSans-110"/>
       <path d="M 19.671875 64.796875 
L 19.671875 8.109375 
L 31.59375 8.109375 
Q 46.6875 8.109375 53.6875 14.9375 
Q 60.6875 21.78125 60.6875 36.53125 
Q 60.6875 51.171875 53.6875 57.984375 
Q 46.6875 64.796875 31.59375 64.796875 
z
M 9.8125 72.90625 
L 30.078125 72.90625 
Q 51.265625 72.90625 61.171875 64.09375 
Q 71.09375 55.28125 71.09375 36.53125 
Q 71.09375 17.671875 61.125 8.828125 
Q 51.171875 0 30.078125 0 
L 9.8125 0 
z
" id="DejaVuSans-68"/>
       <path d="M 44.28125 53.078125 
L 44.28125 44.578125 
Q 40.484375 46.53125 36.375 47.5 
Q 32.28125 48.484375 27.875 48.484375 
Q 21.1875 48.484375 17.84375 46.4375 
Q 14.5 44.390625 14.5 40.28125 
Q 14.5 37.15625 16.890625 35.375 
Q 19.28125 33.59375 26.515625 31.984375 
L 29.59375 31.296875 
Q 39.15625 29.25 43.1875 25.515625 
Q 47.21875 21.78125 47.21875 15.09375 
Q 47.21875 7.46875 41.1875 3.015625 
Q 35.15625 -1.421875 24.609375 -1.421875 
Q 20.21875 -1.421875 15.453125 -0.5625 
Q 10.6875 0.296875 5.421875 2 
L 5.421875 11.28125 
Q 10.40625 8.6875 15.234375 7.390625 
Q 20.0625 6.109375 24.8125 6.109375 
Q 31.15625 6.109375 34.5625 8.28125 
Q 37.984375 10.453125 37.984375 14.40625 
Q 37.984375 18.0625 35.515625 20.015625 
Q 33.0625 21.96875 24.703125 23.78125 
L 21.578125 24.515625 
Q 13.234375 26.265625 9.515625 29.90625 
Q 5.8125 33.546875 5.8125 39.890625 
Q 5.8125 47.609375 11.28125 51.796875 
Q 16.75 56 26.8125 56 
Q 31.78125 56 36.171875 55.265625 
Q 40.578125 54.546875 44.28125 53.078125 
z
" id="DejaVuSans-115"/>
       <path d="M 34.28125 27.484375 
Q 23.390625 27.484375 19.1875 25 
Q 14.984375 22.515625 14.984375 16.5 
Q 14.984375 11.71875 18.140625 8.90625 
Q 21.296875 6.109375 26.703125 6.109375 
Q 34.1875 6.109375 38.703125 11.40625 
Q 43.21875 16.703125 43.21875 25.484375 
L 43.21875 27.484375 
z
M 52.203125 31.203125 
L 52.203125 0 
L 43.21875 0 
L 43.21875 8.296875 
Q 40.140625 3.328125 35.546875 0.953125 
Q 30.953125 -1.421875 24.3125 -1.421875 
Q 15.921875 -1.421875 10.953125 3.296875 
Q 6 8.015625 6 15.921875 
Q 6 25.140625 12.171875 29.828125 
Q 18.359375 34.515625 30.609375 34.515625 
L 43.21875 34.515625 
L 43.21875 35.40625 
Q 43.21875 41.609375 39.140625 45 
Q 35.0625 48.390625 27.6875 48.390625 
Q 23 48.390625 18.546875 47.265625 
Q 14.109375 46.140625 10.015625 43.890625 
L 10.015625 52.203125 
Q 14.9375 54.109375 19.578125 55.046875 
Q 24.21875 56 28.609375 56 
Q 40.484375 56 46.34375 49.84375 
Q 52.203125 43.703125 52.203125 31.203125 
z
" id="DejaVuSans-97"/>
       <path d="M 48.78125 52.59375 
L 48.78125 44.1875 
Q 44.96875 46.296875 41.140625 47.34375 
Q 37.3125 48.390625 33.40625 48.390625 
Q 24.65625 48.390625 19.8125 42.84375 
Q 14.984375 37.3125 14.984375 27.296875 
Q 14.984375 17.28125 19.8125 11.734375 
Q 24.65625 6.203125 33.40625 6.203125 
Q 37.3125 6.203125 41.140625 7.25 
Q 44.96875 8.296875 48.78125 10.40625 
L 48.78125 2.09375 
Q 45.015625 0.34375 40.984375 -0.53125 
Q 36.96875 -1.421875 32.421875 -1.421875 
Q 20.0625 -1.421875 12.78125 6.34375 
Q 5.515625 14.109375 5.515625 27.296875 
Q 5.515625 40.671875 12.859375 48.328125 
Q 20.21875 56 33.015625 56 
Q 37.15625 56 41.109375 55.140625 
Q 45.0625 54.296875 48.78125 52.59375 
z
" id="DejaVuSans-99"/>
      </defs>
      <use xlink:href="#DejaVuSans-67"/>
      <use x="69.824219" xlink:href="#DejaVuSans-111"/>
      <use x="131.005859" xlink:href="#DejaVuSans-109"/>
      <use x="228.417969" xlink:href="#DejaVuSans-112"/>
      <use x="291.894531" xlink:href="#DejaVuSans-101"/>
      <use x="353.417969" xlink:href="#DejaVuSans-116"/>
      <use x="392.626953" xlink:href="#DejaVuSans-105"/>
      <use x="420.410156" xlink:href="#DejaVuSans-116"/>
      <use x="459.619141" xlink:href="#DejaVuSans-105"/>
      <use x="487.402344" xlink:href="#DejaVuSans-111"/>
      <use x="548.583984" xlink:href="#DejaVuSans-110"/>
      <use x="611.962891" xlink:href="#DejaVuSans-68"/>
      <use x="688.964844" xlink:href="#DejaVuSans-105"/>
      <use x="716.748047" xlink:href="#DejaVuSans-115"/>
      <use x="768.847656" xlink:href="#DejaVuSans-116"/>
      <use x="808.056641" xlink:href="#DejaVuSans-97"/>
      <use x="869.335938" xlink:href="#DejaVuSans-110"/>
      <use x="932.714844" xlink:href="#DejaVuSans-99"/>
      <use x="987.695312" xlink:href="#DejaVuSans-101"/>
     </g>
    </g>
   </g>
   <g id="matplotlib.axis_2">
    <g id="ytick_1">
     <g id="line2d_10">
      <defs>
       <path d="M 0 0 
L -3.5 0 
" id="mc3a5b50564" style="stroke:#000000;stroke-width:0.8;"/>
      </defs>
      <g>
       <use style="stroke:#000000;stroke-width:0.8;" x="72" xlink:href="#mc3a5b50564" y="378"/>
      </g>
     </g>
     <g id="text_11">
      <!-- 0.00000 -->
      <g transform="translate(23.646875 381.799219)scale(0.1 -0.1)">
       <defs>
        <path d="M 10.6875 12.40625 
L 21 12.40625 
L 21 0 
L 10.6875 0 
z
" id="DejaVuSans-46"/>
       </defs>
       <use xlink:href="#DejaVuSans-48"/>
       <use x="63.623047" xlink:href="#DejaVuSans-46"/>
       <use x="95.410156" xlink:href="#DejaVuSans-48"/>
       <use x="159.033203" xlink:href="#DejaVuSans-48"/>
       <use x="222.65625" xlink:href="#DejaVuSans-48"/>
       <use x="286.279297" xlink:href="#DejaVuSans-48"/>
       <use x="349.902344" xlink:href="#DejaVuSans-48"/>
      </g>
     </g>
    </g>
    <g id="ytick_2">
     <g id="line2d_11">
      <g>
       <use style="stroke:#000000;stroke-width:0.8;" x="72" xlink:href="#mc3a5b50564" y="317.792516"/>
      </g>
     </g>
     <g id="text_12">
      <!-- 0.00005 -->
      <g transform="translate(23.646875 321.591735)scale(0.1 -0.1)">
       <use xlink:href="#DejaVuSans-48"/>
       <use x="63.623047" xlink:href="#DejaVuSans-46"/>
       <use x="95.410156" xlink:href="#DejaVuSans-48"/>
       <use x="159.033203" xlink:href="#DejaVuSans-48"/>
       <use x="222.65625" xlink:href="#DejaVuSans-48"/>
       <use x="286.279297" xlink:href="#DejaVuSans-48"/>
       <use x="349.902344" xlink:href="#DejaVuSans-53"/>
      </g>
     </g>
    </g>
    <g id="ytick_3">
     <g id="line2d_12">
      <g>
       <use style="stroke:#000000;stroke-width:0.8;" x="72" xlink:href="#mc3a5b50564" y="257.585032"/>
      </g>
     </g>
     <g id="text_13">
      <!-- 0.00010 -->
      <g transform="translate(23.646875 261.384251)scale(0.1 -0.1)">
       <use xlink:href="#DejaVuSans-48"/>
       <use x="63.623047" xlink:href="#DejaVuSans-46"/>
       <use x="95.410156" xlink:href="#DejaVuSans-48"/>
       <use x="159.033203" xlink:href="#DejaVuSans-48"/>
       <use x="222.65625" xlink:href="#DejaVuSans-48"/>
       <use x="286.279297" xlink:href="#DejaVuSans-49"/>
       <use x="349.902344" xlink:href="#DejaVuSans-48"/>
      </g>
     </g>
    </g>
    <g id="ytick_4">
     <g id="line2d_13">
      <g>
       <use style="stroke:#000000;stroke-width:0.8;" x="72" xlink:href="#mc3a5b50564" y="197.377548"/>
      </g>
     </g>
     <g id="text_14">
      <!-- 0.00015 -->
      <g transform="translate(23.646875 201.176767)scale(0.1 -0.1)">
       <use xlink:href="#DejaVuSans-48"/>
       <use x="63.623047" xlink:href="#DejaVuSans-46"/>
       <use x="95.410156" xlink:href="#DejaVuSans-48"/>
       <use x="159.033203" xlink:href="#DejaVuSans-48"/>
       <use x="222.65625" xlink:href="#DejaVuSans-48"/>
       <use x="286.279297" xlink:href="#DejaVuSans-49"/>
       <use x="349.902344" xlink:href="#DejaVuSans-53"/>
      </g>
     </g>
    </g>
    <g id="ytick_5">
     <g id="line2d_14">
      <g>
       <use style="stroke:#000000;stroke-width:0.8;" x="72" xlink:href="#mc3a5b50564" y="137.170064"/>
      </g>
     </g>
     <g id="text_15">
      <!-- 0.00020 -->
      <g transform="translate(23.646875 140.969283)scale(0.1 -0.1)">
       <use xlink:href="#DejaVuSans-48"/>
       <use x="63.623047" xlink:href="#DejaVuSans-46"/>
       <use x="95.410156" xlink:href="#DejaVuSans-48"/>
       <use x="159.033203" xlink:href="#DejaVuSans-48"/>
       <use x="222.65625" xlink:href="#DejaVuSans-48"/>
       <use x="286.279297" xlink:href="#DejaVuSans-50"/>
       <use x="349.902344" xlink:href="#DejaVuSans-48"/>
      </g>
     </g>
    </g>
    <g id="ytick_6">
     <g id="line2d_15">
      <g>
       <use style="stroke:#000000;stroke-width:0.8;" x="72" xlink:href="#mc3a5b50564" y="76.962581"/>
      </g>
     </g>
     <g id="text_16">
      <!-- 0.00025 -->
      <g transform="translate(23.646875 80.761799)scale(0.1 -0.1)">
       <use xlink:href="#DejaVuSans-48"/>
       <use x="63.623047" xlink:href="#DejaVuSans-46"/>
       <use x="95.410156" xlink:href="#DejaVuSans-48"/>
       <use x="159.033203" xlink:href="#DejaVuSans-48"/>
       <use x="222.65625" xlink:href="#DejaVuSans-48"/>
       <use x="286.279297" xlink:href="#DejaVuSans-50"/>
       <use x="349.902344" xlink:href="#DejaVuSans-53"/>
      </g>
     </g>
    </g>
    <g id="text_17">
     <!-- Density -->
     <g transform="translate(17.567187 233.928594)rotate(-90)scale(0.1 -0.1)">
      <defs>
       <path d="M 32.171875 -5.078125 
Q 28.375 -14.84375 24.75 -17.8125 
Q 21.140625 -20.796875 15.09375 -20.796875 
L 7.90625 -20.796875 
L 7.90625 -13.28125 
L 13.1875 -13.28125 
Q 16.890625 -13.28125 18.9375 -11.515625 
Q 21 -9.765625 23.484375 -3.21875 
L 25.09375 0.875 
L 2.984375 54.6875 
L 12.5 54.6875 
L 29.59375 11.921875 
L 46.6875 54.6875 
L 56.203125 54.6875 
z
" id="DejaVuSans-121"/>
      </defs>
      <use xlink:href="#DejaVuSans-68"/>
      <use x="77.001953" xlink:href="#DejaVuSans-101"/>
      <use x="138.525391" xlink:href="#DejaVuSans-110"/>
      <use x="201.904297" xlink:href="#DejaVuSans-115"/>
      <use x="254.003906" xlink:href="#DejaVuSans-105"/>
      <use x="281.787109" xlink:href="#DejaVuSans-116"/>
      <use x="320.996094" xlink:href="#DejaVuSans-121"/>
     </g>
    </g>
   </g>
   <g id="line2d_16">
    <path clip-path="url(#p0533b2365d)" d="M 92.290909 377.289566 
L 94.330196 370.513635 
L 96.369484 335.380693 
L 98.408771 243.726718 
L 100.448058 132.934194 
L 102.487346 93.466433 
L 104.526633 128.214565 
L 106.565921 174.079049 
L 108.605208 205.441761 
L 112.683783 249.097318 
L 114.72307 268.542338 
L 116.762357 282.604537 
L 118.801645 293.917004 
L 122.880219 313.805468 
L 124.919507 323.22841 
L 126.958794 331.355209 
L 128.998081 337.136022 
L 131.037369 339.709297 
L 133.076656 341.117201 
L 135.115943 343.902604 
L 137.155231 346.158495 
L 139.194518 345.328114 
L 141.233805 344.014894 
L 143.273093 345.398151 
L 145.31238 347.911949 
L 147.351667 349.938528 
L 149.390955 352.553843 
L 151.430242 356.695745 
L 153.469529 360.374558 
L 155.508817 362.455807 
L 157.548104 364.001067 
L 159.587392 365.212844 
L 161.626679 365.745952 
L 163.665966 364.542679 
L 165.705254 362.336565 
L 167.744541 361.949927 
L 169.783828 363.350056 
L 171.823116 364.321131 
L 173.862403 363.981521 
L 175.90169 362.507863 
L 177.940978 362.017012 
L 179.980265 363.872086 
L 182.019552 365.455447 
L 184.05884 364.807582 
L 186.098127 363.322335 
L 188.137414 362.32754 
L 190.176702 362.195819 
L 194.255276 362.378076 
L 196.294564 364.435198 
L 198.333851 367.617784 
L 200.373138 368.595118 
L 202.412426 368.271647 
L 204.451713 368.82676 
L 208.530288 371.433164 
L 210.569575 371.544032 
L 212.608862 370.492733 
L 214.64815 370.148783 
L 216.687437 371.851442 
L 218.726725 374.150925 
L 220.766012 375.249665 
L 222.805299 375.445122 
L 226.883874 375.332738 
L 233.001736 375.025245 
L 237.080311 373.749238 
L 239.119598 373.439093 
L 241.158885 374.013061 
L 243.198173 375.517284 
L 245.23746 376.727459 
L 247.276747 376.651323 
L 249.316035 375.872473 
L 251.355322 375.353675 
L 253.394609 375.094733 
L 255.433897 375.372959 
L 257.473184 376.388338 
L 259.512471 377.162035 
L 261.551759 376.890744 
L 263.591046 375.911296 
L 265.630333 375.321717 
L 267.669621 375.658541 
L 269.708908 376.320316 
L 271.748196 376.763819 
L 277.866058 377.163532 
L 281.944632 376.983301 
L 283.98392 377.063135 
L 286.023207 377.019929 
L 288.062494 377.09323 
L 292.141069 377.812938 
L 294.180356 377.682681 
L 298.258931 376.240649 
L 300.298218 376.408765 
L 302.337506 377.215728 
L 304.376793 377.54497 
L 306.41608 377.068615 
L 308.455368 376.372619 
L 310.494655 376.398265 
L 312.533942 377.130915 
L 314.57323 377.742621 
L 316.612517 377.958953 
L 320.691092 377.988292 
L 322.730379 377.907318 
L 324.769667 377.618281 
L 326.808954 377.190829 
L 328.848241 377.095012 
L 330.887529 377.330782 
L 332.926816 377.276212 
L 334.966103 376.931497 
L 337.005391 376.75657 
L 339.044678 376.804251 
L 343.123253 377.545313 
L 345.16254 377.581485 
L 347.201827 377.230263 
L 349.241115 377.099344 
L 353.319689 377.828666 
L 355.358977 377.972502 
L 365.555413 378 
L 394.105436 377.938771 
L 396.144724 377.70664 
L 398.184011 377.278444 
L 400.223298 377.088898 
L 406.34116 377.966424 
L 414.49831 378 
L 483.834079 377.977031 
L 485.873367 377.848826 
L 489.951942 377.113983 
L 491.991229 377.211019 
L 494.030516 377.639323 
L 496.069804 377.915355 
L 498.109091 377.989802 
L 498.109091 377.989802 
" style="fill:none;stroke:#ee82ee;stroke-linecap:square;stroke-width:1.5;"/>
   </g>
   <g id="patch_53">
    <path d="M 72 378 
L 72 51.84 
" style="fill:none;stroke:#000000;stroke-linecap:square;stroke-linejoin:miter;stroke-width:0.8;"/>
   </g>
   <g id="patch_54">
    <path d="M 518.4 378 
L 518.4 51.84 
" style="fill:none;stroke:#000000;stroke-linecap:square;stroke-linejoin:miter;stroke-width:0.8;"/>
   </g>
   <g id="patch_55">
    <path d="M 72 378 
L 518.4 378 
" style="fill:none;stroke:#000000;stroke-linecap:square;stroke-linejoin:miter;stroke-width:0.8;"/>
   </g>
   <g id="patch_56">
    <path d="M 72 51.84 
L 518.4 51.84 
" style="fill:none;stroke:#000000;stroke-linecap:square;stroke-linejoin:miter;stroke-width:0.8;"/>
   </g>
  </g>
 </g>
 <defs>
  <clipPath id="p0533b2365d">
   <rect height="326.16" width="446.4" x="72" y="51.84"/>
  </clipPath>
 </defs>
</svg>
